<svg width="365" height="70" xmlns="http://www.w3.org/2000/svg">
 <defs>
  <style>.cls-1{fill:#f05a28;}.cls-2{fill:#bbbdbf;}.cls-3{fill:#58595b;}</style>
 </defs>
 <title>datauri</title>
 <g>
  <title>background</title>
  <rect fill="none" id="canvas_background" height="72" width="367" y="-1" x="-1"/>
 </g>
 <g>
  <title>Layer 1</title>
  <path id="svg_1" d="m20.929993,67.139995l-3.87,0q-8.32,0 -12.19,-3.54t-3.87,-11.57l0,-17q0,-7.94 3.92,-11.53t12.14,-3.59l11,0l0,-18.9l8,0l0,66.14l-7.56,0l0,-2.17a12.88,12.88 0 0 1 -7.57,2.16zm5.57,-8.74a5.18,5.18 0 0 0 1.51,-3.54l0,-27.88l-11.9,0a7.7,7.7 0 0 0 -5.29,1.61a5.77,5.77 0 0 0 -1.8,4.54l0,20.79a5.77,5.77 0 0 0 1.8,4.54a7.7,7.7 0 0 0 5.29,1.61l5.76,0a6,6 0 0 0 4.64,-1.67l-0.01,0z" class="cls-1"/>
  <path id="svg_2" d="m80.789993,66.379995a7.54,7.54 0 0 1 -2.5,-2.08a6.91,6.91 0 0 1 -5.76,2.83l-8.41,0q-7.18,0 -10.44,-2.88t-3.26,-9.87l0,-1.89q0,-14.64 13.79,-14.65l11.72,0l0,-4.72a5.78,5.78 0 0 0 -1.79,-4.54a7.71,7.71 0 0 0 -5.29,-1.61l-14.67,0l0,-7.09l13.7,0q8.22,0 12.14,3.59t3.92,11.53l0,22.68a2.37,2.37 0 0 0 1.09,2.13a7,7 0 0 0 3.64,0.71l0,6.61l-5.2,0a5.92,5.92 0 0 1 -2.68,-0.75zm-5.61,-7.65a6.8,6.8 0 0 0 0.76,-3.4l0,-10.4l-11.83,0a5.49,5.49 0 0 0 -5.67,5.67l0,4.72a4.08,4.08 0 0 0 4.72,4.72l8.41,0q2.84,0.01 3.61,-1.31z" class="cls-1"/>
  <path id="svg_3" d="m116.739993,64.019995a12.58,12.58 0 0 1 -2.55,-8.22l0,-28.82l-9,0l0,-7.09l9,0l0,-11.33l8,0l0,11.34l13.79,0l0,7.09l-13.8,0l0,29.29a3.59,3.59 0 0 0 1,2.93a5,5 0 0 0 3.21,0.85l9.54,0l0,7.09l-11.9,0a9,9 0 0 1 -7.29,-3.13z" class="cls-1"/>
  <path id="svg_4" d="m182.829993,66.379995a7.54,7.54 0 0 1 -2.5,-2.08a6.91,6.91 0 0 1 -5.76,2.83l-8.39,0q-7.18,0 -10.44,-2.88t-3.26,-9.87l0,-1.89q0,-14.64 13.79,-14.65l11.72,0l0,-4.72a5.78,5.78 0 0 0 -1.81,-4.5a7.71,7.71 0 0 0 -5.29,-1.61l-14.71,0l0,-7.09l13.7,0q8.22,0 12.14,3.59t3.92,11.53l0,22.68a2.37,2.37 0 0 0 1.09,2.13a7,7 0 0 0 3.64,0.71l0,6.61l-5.2,0a5.92,5.92 0 0 1 -2.64,-0.79zm-5.65,-7.65a6.8,6.8 0 0 0 0.76,-3.4l0,-10.4l-11.76,0a5.49,5.49 0 0 0 -5.7,5.69l0,4.72a4.08,4.08 0 0 0 4.72,4.72l8.41,0q2.84,-0.01 3.57,-1.33z" class="cls-1"/>
  <path id="svg_5" d="m209.229993,19.899995l0,9.45l-3.78,0l0,-9.45l3.78,0zm0,37.79l0,9.45l-3.78,0l0,-9.45l3.78,0z" class="cls-2"/>
  <path id="svg_6" d="m243.909993,67.139995l-3.21,0q-7.65,0 -11.38,-3.59t-3.74,-11.53l0,-32.12l8,0l0,34a5.71,5.71 0 0 0 6.14,6.14l5.1,0a6,6 0 0 0 4.49,-1.51a5.61,5.61 0 0 0 1.65,-3.4l0,-35.23l8,0l0,47.24l-7.56,0l0,-2.17a12.88,12.88 0 0 1 -7.49,2.17z" class="cls-3"/>
  <path id="svg_7" d="m284.179993,60.049995l0,-33.07l-6.9,0l0,-7.09l14.46,0l0,2.55a11.55,11.55 0 0 1 7.56,-2.55l9.73,0l0,7.56l-10.7,0a5.4,5.4 0 0 0 -4.54,1.94a6.88,6.88 0 0 0 -1.61,3.92l0,26.74l10.3,0l0,7.09l-25.22,0l0,-7.09l6.92,0z" class="cls-3"/>
  <path id="svg_8" d="m326.389993,26.979995l0,-7.09l21.92,0l0,40.16l14,0l0,7.09l-22,0l0,-40.16l-13.92,0zm22.39,-26l0,8.5l-9,0l0,-8.5l9,0z" class="cls-3"/>
 </g>
</svg>
